<?xml version="1.0" standalone="no"?>
<!DOCTYPE svg PUBLIC "-//W3C//DTD SVG 20010904//EN"
 "http://www.w3.org/TR/2001/REC-SVG-20010904/DTD/svg10.dtd">
<svg version="1.0" xmlns="http://www.w3.org/2000/svg"
 width="1200.000000pt" height="630.000000pt" viewBox="0 0 1200.000000 630.000000"
 preserveAspectRatio="xMidYMid meet">

<g transform="translate(0.000000,630.000000) scale(0.100000,-0.100000)"
fill="#000000" stroke="none">
<path d="M0 3150 l0 -3150 6000 0 6000 0 0 3150 0 3150 -6000 0 -6000 0 0
-3150z m6921 1843 c82 -42 89 -63 89 -256 l0 -157 -32 -20 c-98 -60 -341 -130
-638 -185 -113 -21 -211 -43 -217 -48 -9 -6 -13 -39 -13 -98 l0 -89 -571 0
c-377 0 -568 -3 -564 -10 4 -6 205 -10 569 -10 l564 0 7 -97 c3 -54 9 -108 12
-120 l5 -23 -576 0 c-374 0 -576 -3 -576 -10 0 -6 204 -11 577 -12 l577 -3 8
-42 c3 -23 17 -74 29 -115 12 -40 21 -75 20 -78 0 -2 -274 -5 -608 -7 -335 -1
-610 -2 -613 -3 -3 0 2 -5 10 -10 9 -6 247 -10 622 -10 l608 0 25 -49 c13 -27
47 -79 75 -116 27 -36 50 -67 50 -68 0 -1 -308 -2 -685 -2 -448 0 -686 -3
-687 -10 -2 -7 236 -11 696 -13 l698 -2 56 -51 c73 -67 175 -135 292 -195 l95
-49 -1105 -3 c-1221 -2 -1165 -5 -1227 61 -47 50 -53 68 -53 176 l0 101 186 0
c117 0 193 4 207 11 53 27 72 84 41 127 -32 46 -61 52 -254 52 l-181 0 3 113
3 112 187 1 c173 0 190 2 215 21 58 42 53 115 -9 153 -30 18 -51 20 -216 20
l-183 0 3 113 3 112 175 1 c221 1 207 0 235 29 35 34 34 93 -1 126 -25 23 -30
24 -220 27 l-194 3 0 110 0 109 180 0 c191 0 227 7 250 49 26 49 1 112 -52
130 -18 6 -107 11 -204 11 l-174 0 0 51 c0 58 23 114 54 132 62 35 63 35 1227
36 l1145 1 55 -27z m-2203 -245 c7 -7 12 -26 12 -43 0 -17 -5 -36 -12 -43 -17
-17 -434 -17 -444 0 -8 13 -7 76 2 90 9 13 428 10 442 -4z m2440 -292 c122
-62 393 -133 710 -187 l72 -12 0 -133 c0 -371 -79 -597 -272 -780 -119 -113
-241 -186 -453 -271 l-109 -44 -61 22 c-137 51 -359 169 -440 236 -164 136
-259 278 -306 462 -28 107 -37 184 -45 358 l-6 151 73 12 c272 45 516 107 679
174 47 19 91 35 98 35 7 1 34 -10 60 -23z m-2447 -106 c14 -8 19 -21 19 -50 0
-29 -5 -42 -19 -50 -12 -6 -98 -10 -211 -10 -113 0 -199 4 -211 10 -22 12 -27
78 -7 98 15 15 400 17 429 2z m3 -416 c11 -4 16 -19 16 -50 0 -37 -3 -44 -22
-49 -13 -3 -115 -4 -228 -3 l-205 3 -3 44 c-2 28 1 47 10 52 15 10 408 12 432
3z m0 -420 c22 -9 22 -89 0 -98 -9 -3 -107 -6 -218 -6 -220 0 -226 2 -226 55
0 53 6 55 226 55 111 0 209 -3 218 -6z m2269 -526 c14 -7 15 -13 7 -28 -28
-52 16 -50 -1175 -50 -964 0 -1110 2 -1142 15 -37 16 -62 41 -63 62 0 15 2344
16 2373 1z m-333 -513 l0 -95 40 20 c47 24 125 26 175 6 54 -23 65 -56 65
-201 l0 -125 -65 0 -65 0 0 108 c0 129 -10 152 -68 152 -21 0 -48 -7 -60 -16
-21 -14 -22 -23 -22 -130 l0 -114 -70 0 -70 0 0 245 0 245 70 0 70 0 0 -95z
m960 -150 l0 -245 -65 0 -65 0 0 245 0 245 65 0 65 0 0 -245z m-4154 81 l119
-144 3 144 3 144 69 0 70 0 -2 -232 -3 -233 -65 -2 -65 -3 -105 127 c-58 70
-115 138 -127 152 l-22 26 -1 -152 0 -153 -65 0 -65 0 0 235 0 235 69 0 68 0
119 -144z m2076 -90 c59 -127 108 -231 108 -233 0 -2 -33 -3 -73 -3 l-73 0
-23 55 -23 55 -107 0 -107 0 -23 -55 -23 -55 -74 0 -73 0 55 118 c31 64 81
170 112 235 l55 118 81 -3 80 -3 108 -229z m1878 189 l0 -45 -125 0 -125 0 0
-55 0 -55 115 0 115 0 0 -40 0 -40 -115 0 -115 0 0 -95 0 -95 -70 0 -70 0 0
235 0 235 195 0 195 0 0 -45z m-2510 -34 l0 -50 53 -3 52 -3 3 -37 3 -38 -55
0 -56 0 0 -71 c0 -91 10 -109 59 -109 35 0 39 -3 45 -31 3 -17 4 -34 1 -39 -9
-14 -104 -21 -149 -9 -24 6 -55 22 -68 36 -21 22 -23 34 -23 121 l0 97 -32 3
c-31 3 -33 6 -33 43 0 38 1 39 35 39 34 0 35 1 35 39 l0 39 58 10 c31 5 60 10
65 11 4 0 7 -21 7 -48z m1440 0 l0 -50 53 -3 52 -3 3 -37 3 -38 -55 0 -56 0 0
-71 c0 -94 9 -109 66 -109 l45 0 -3 -37 c-3 -36 -5 -38 -47 -46 -66 -13 -129
0 -163 33 -27 27 -28 32 -28 129 l0 101 -35 0 c-34 0 -35 1 -35 40 0 39 1 40
35 40 34 0 35 1 35 38 l0 39 58 10 c31 6 60 11 65 12 4 0 7 -21 7 -48z m-2251
-61 c69 -20 121 -101 105 -165 l-6 -25 -135 0 c-123 0 -134 -2 -131 -17 4 -24
64 -53 109 -53 20 0 56 6 81 14 l46 13 4 -39 c2 -22 1 -41 -3 -44 -4 -2 -40
-9 -81 -15 -124 -20 -245 20 -280 91 -23 45 -23 116 0 160 28 53 107 90 191
90 37 0 82 -4 100 -10z m320 -40 l39 -50 37 50 37 50 74 0 c41 0 74 -4 74 -8
0 -5 -10 -17 -21 -28 -12 -10 -44 -45 -71 -76 l-50 -58 59 -62 c32 -35 67 -73
77 -85 l19 -23 -79 0 -80 0 -38 50 c-21 28 -41 50 -45 50 -3 0 -21 -23 -40
-50 l-33 -50 -74 0 c-41 0 -74 3 -74 8 0 4 32 42 70 85 l70 78 -70 78 c-38 43
-70 81 -70 84 0 4 34 7 75 7 l75 0 39 -50z m1399 -65 c2 -98 5 -112 23 -127
12 -10 34 -18 49 -18 56 0 68 23 73 145 l5 110 63 0 64 0 3 -167 2 -168 -65 0
c-58 0 -65 2 -65 20 0 19 -1 19 -37 -2 -50 -30 -151 -31 -191 -2 -49 37 -62
77 -62 200 0 61 3 114 7 118 4 4 34 6 68 4 l60 -3 3 -110z m2217 96 c46 -20
92 -70 101 -107 4 -14 4 -45 2 -69 -11 -96 -89 -149 -223 -149 -143 -1 -225
61 -225 171 0 119 69 170 230 172 53 0 87 -5 115 -18z m295 -95 l36 -108 41
108 41 109 59 3 60 3 31 -83 c58 -152 55 -145 59 -123 2 11 18 62 34 113 l31
92 65 0 65 0 -7 -27 c-3 -15 -34 -92 -67 -170 l-61 -143 -66 0 -66 0 -40 105
c-21 57 -41 102 -44 100 -2 -3 -21 -49 -41 -102 l-37 -98 -67 0 -68 0 -64 154
c-35 85 -64 161 -64 168 0 11 16 13 67 11 l66 -3 37 -109z"/>
<path d="M4970 4680 c0 -7 297 -10 870 -10 573 0 870 3 870 10 0 7 -297 10
-870 10 -573 0 -870 -3 -870 -10z"/>
<path d="M4975 4430 c4 -7 247 -10 696 -10 453 0 689 3 689 10 0 7 -239 10
-696 10 -461 0 -693 -3 -689 -10z"/>
<path d="M7045 4309 c-85 -35 -283 -88 -443 -119 -84 -16 -157 -32 -163 -35
-12 -8 -12 -147 1 -255 34 -295 153 -465 431 -616 121 -66 194 -96 236 -96 47
0 266 110 362 182 208 157 292 341 295 648 l1 135 -155 32 c-182 38 -324 76
-434 116 -44 16 -80 29 -80 28 -1 0 -23 -9 -51 -20z m495 -319 c48 -34 41 -69
-22 -122 -318 -266 -489 -398 -516 -398 -36 0 -315 215 -320 247 -4 25 71 93
103 93 12 0 64 -31 115 -70 51 -38 96 -70 99 -70 3 0 104 79 225 176 205 165
221 176 252 171 19 -3 48 -15 64 -27z"/>
<path d="M5308 2372 c-15 -37 -30 -75 -34 -84 -5 -16 1 -18 66 -18 65 0 71 2
66 18 -27 70 -62 152 -66 152 -3 0 -17 -31 -32 -68z"/>
<path d="M3948 2339 c-10 -5 -22 -19 -28 -29 -10 -19 -7 -20 70 -20 60 0 80 3
80 13 0 38 -79 61 -122 36z"/>
<path d="M7862 2340 c-30 -13 -55 -74 -47 -116 11 -59 91 -95 136 -61 41 31
53 118 22 156 -20 25 -77 35 -111 21z"/>
</g>
</svg>
